<svg xmlns="http://www.w3.org/2000/svg" viewBox="0 0 1662 528" width="1662" height="528"><title>logo-sinbi-svg</title><style>
		.s0 { fill: none;stroke: #c2b8ac;stroke-linecap: round;stroke-linejoin: round;stroke-width: 8.1 } 
		.s1 { fill: #262648 } 
		.s2 { fill: #e75e60 } 
		.s3 { fill: #c2b8ac } 
		.s4 { fill: #4d61aa } 
	</style><g id="Layer"><g id="Layer"><path id="Layer" class="s0" d=""></path><g id="Layer"><path id="Layer" class="s1" d="m1443.6 35.7c26.4-25.3 69.1-24.5 95.8 2.1l103.9 103.3h-0.1q-1-1.1-2.1-2.2c-27-26.9-70.2-27.4-96.5-1.2l-30.1 30-101.8-101.3z"></path></g><path id="Layer" class="s2" d="m1642.3 234.9l-74 73.5-97.6-97.1 73.9-73.6c26.3-26.2 69.5-25.7 96.5 1.2 27 26.8 27.5 69.8 1.2 96z"></path><g id="Layer"><path id="Layer" class="s3" d="m1470.7 211.4l97.6 97-21.5 21.4-0.8 0.8c-26.4 25.4-69.1 24.6-95.9-2l-97.8-97.3v-0.1q0.1 0.2 0.3 0.4c27 26.9 70.3 27.4 96.7 1.1z"></path></g><path id="Layer" class="s4" d="m1514.5 167.7l-65.2 65.1c-26.4 26.2-69.7 25.7-96.7-1.2-27.1-26.9-31.6-74-5.2-100.2l65.3-65z"></path><path id="Layer" class="s0" d=""></path></g><g id="Layer"><g id="Layer"><path id="Layer" class="s4" d="m765.4 252.1v254.7h-43.3v-9.3c-2.2-24.7-12.8-47.6-30.5-65.3l-146.8-146.8c-9.1-9.1-24.7-2.7-24.7 10.3v211.1h-43.3v-254.7h34.7 60.7l149.7 149.8q0.1 0.1 0.2 0.2v-150c0 0 43.3 0 43.3 0z"></path></g><g id="Layer"><path id="Layer" class="s4" d="m385.9 346.4c13.3 13.4 20.8 31.4 20.8 50.3v110.1h-42.9v-254.7h42.9v84.5h-16.7c-5.2 0-7.7 6.2-4.1 9.8z"></path></g><g id="Layer"><path id="Layer" class="s4" d="m1217.5 346.4c13.3 13.4 20.8 31.4 20.8 50.3v110.1h-42.9v-254.7h42.9v84.5h-16.7c-5.1 0-7.7 6.2-4.1 9.8z"></path></g><path id="Layer" class="s4" d="m293.6 433.2c-0.6 40.8-34.9 73.3-75.8 73.3h-151c-21.6 0-42.2-9.4-56.3-25.8l33.3-28.9c5.8 6.7 14.2 10.6 23 10.6h151.5c16.6 0 30.7-13 31.2-29.5 0.6-17.3-13.3-31.3-30.4-31.3h-16-107.4-16c-41.6 0-75.3-33.9-74.6-75.6 0.6-40.9 34.9-73.3 75.8-73.3h184.7v44.1h-185.2c-16.6 0-30.7 12.9-31.2 29.5-0.6 17.2 13.3 31.2 30.4 31.2h16 107.5 16c41.5 0 75.2 33.9 74.5 75.7z"></path><path id="Layer" fill-rule="evenodd" class="s4" d="m1101.6 379.4c13.6 13.5 22 32.1 22 52.7 0 40.8-33.2 74.1-74.1 74.1h-118.5c-16-1.8-31-9-42.5-20.5-3.7-3.7-10-1.1-10 4.1v17h-42.9v-254.2h213.9c40.9 0 74.1 33.3 74.1 74.1 0 20.6-8.4 39.3-22 52.7zm-20.8 52.6c0-16.7-13.3-30.4-29.9-31.2q-0.7 0.1-1.4 0.1v-0.1h-171v62.5h171c17.2 0 31.3-14 31.3-31.3zm0-105.3c0-17.2-14.1-31.2-31.3-31.2h-171v62.5l171-0.1q0.7 0 1.4 0c16.6-0.7 29.9-14.4 29.9-31.2z"></path></g></g></svg>